<svg width="1628" height="1596" viewBox="0 0 1628 1596" fill="none" xmlns="http://www.w3.org/2000/svg">
<path d="M817.943 359.309L647.2 645.461C637.716 661.267 616.897 666.279 601.357 656.264L345.25 494.482C330.232 484.998 325.485 465.233 334.712 449.693L469.089 224.145C497.283 176.983 548.138 148 603.199 148L729.33 148.009L817.943 359.309Z" fill="#001F3F"/>
<path d="M928.69 545.071L818.001 359.291C818.001 359.291 737.42 224.163 737.331 224.163C709.881 178.028 657.724 148.009 603.266 148.009H1031.41C1087.28 148.009 1138.64 177.231 1167.42 225.225L1245.35 356.192L1290.69 329.007C1312.56 316.078 1338.68 339.013 1329.21 362.745L1219.31 641.237C1214.8 652.572 1203.99 658.859 1192.13 657.619L894.687 622.022C869.361 618.834 861.746 584.83 883.352 571.99L928.69 545.071Z" fill="#05478B"/>
<path d="M1246.55 1078.63L1088.18 785.672C1079.49 769.334 1085.81 748.791 1102.41 740.36L1372.52 603.629C1388.33 595.465 1407.83 601.521 1416.53 617.328L1541.44 848.375C1567.52 896.582 1566.21 955.335 1538.01 1002.5L1466.96 1121.48L1246.55 1078.63Z" fill="#001F3F"/>
<path d="M1537.98 1002.47L1318.46 1370.31C1290.04 1418.21 1238.68 1447.43 1182.54 1447.43L1033.06 1447.34V1500.03C1033.06 1525.62 999.856 1536.16 984.537 1515.88L801.413 1278.74C794.063 1269.27 794.329 1256.61 801.413 1247.13L984.359 1009.99C1000.12 989.714 1033.06 1000.52 1033.33 1025.84L1033.06 1078.53C1033.06 1078.53 1403.82 1078.62 1403.91 1078.62C1457.75 1078.62 1510.17 1049.22 1537.98 1002.47Z" fill="#05478B"/>
<path d="M405.612 1090.08H724.395C738.891 1090.08 750.748 1101.94 750.748 1116.43V1432.62C750.748 1447.12 738.891 1458.98 724.395 1458.98H469.908C415.095 1458.98 362.399 1429.99 334.204 1382.83L248 1238.61L405.612 1090.08Z" fill="#001F3F"/>
<path d="M590.216 891.854C600.577 915.409 575.428 939.318 553.025 927.54L506.801 902.303L330.762 1228.61C305.171 1276.08 306.234 1336.2 334.127 1382.87L114.521 1015.12C85.8305 967.3 84.4137 908.236 111.068 858.825L182.085 727.327L135.685 702.267C113.193 690.136 119.657 655.955 144.805 652.147L440.388 603.356C452.254 601.408 463.234 607.606 468.282 618.409L590.216 891.854Z" fill="#05478B"/>
<path d="M713.786 1394.16V1407.62L814.906 1466V1452.54L713.786 1394.16Z" fill="#DADFF0"/>
<path d="M713.783 1394.16L814.904 1452.54L916 1394.16L830.458 1344.78V1376.2L853.787 1389.67V1394.16L814.904 1416.62L776.023 1394.16V1389.67L799.353 1376.2V1344.78L713.783 1394.16Z" fill="#B5B9C9"/>
<path d="M776.026 1389.67V1394.16L814.906 1416.62V1412.12L776.026 1389.67Z" fill="#DADFF0"/>
<path d="M776.01 1389.67L814.89 1412.12L853.773 1389.67L830.444 1376.2V1389.67L814.89 1398.66L799.339 1389.67V1376.2L776.01 1389.67Z" fill="#9A9FB0"/>
<path d="M799.356 1376.2V1389.67L814.906 1398.66V1174.99L799.356 1166V1344.78V1376.2Z" fill="#DADFF0"/>
<path d="M814.904 1452.54V1466L916 1407.62V1394.16L814.904 1452.54Z" fill="#696E78"/>
<path d="M814.89 1412.12V1416.62L853.773 1394.16V1389.67L814.89 1412.12Z" fill="#696E78"/>
<path d="M814.899 1174.99V1398.66L830.453 1389.67V1376.2V1344.78V1166L814.899 1174.99Z" fill="#696E78"/>
<path d="M1080.04 1267.19H298.664L550.989 950.499H1332.36L1080.04 1267.19Z" fill="#57CCFF"/>
<path d="M548.896 947L291 1270.68H1082.09L1339.99 947.002H548.896V947ZM1246.17 1052.56H1099.51L1178.04 953.995H1324.7L1246.17 1052.56ZM625.308 1059.56H771.804L693.269 1158.12H546.772L625.308 1059.56ZM537.057 1158.13H390.397L468.933 1059.56H615.592L537.057 1158.13ZM933.578 1052.56H787.093L865.628 953.995H1012.11L933.578 1052.56ZM1021.83 953.995H1168.33L1089.79 1052.56H943.294L1021.83 953.995ZM928.005 1059.56L849.47 1158.12H702.984L781.52 1059.56H928.005ZM777.377 1052.56H630.881L709.416 953.995H855.912L777.377 1052.56ZM687.696 1165.12L609.16 1263.69H462.667L541.202 1165.12H687.696ZM697.414 1165.12H843.9L765.364 1263.69H618.878L697.414 1165.12ZM853.615 1165.12H1000.11L921.576 1263.69H775.08L853.615 1165.12ZM859.188 1158.13L937.724 1059.56H1084.22L1005.68 1158.13H859.188ZM1093.94 1059.56H1240.6L1162.06 1158.12H1015.4L1093.94 1059.56ZM699.698 953.995L621.163 1052.56H474.503L553.038 953.995H699.698ZM384.824 1165.12H531.484L452.948 1263.69H306.291L384.824 1165.12ZM931.292 1263.69L1009.83 1165.12H1156.49L1077.95 1263.69H931.292Z" fill="white"/>
<path d="M1082.09 1270.68H291V1282H1082.09V1270.68Z" fill="#0588D3"/>
<path d="M1340 969.637V947L1082.11 1270.68V1282H1091.13L1340 969.637Z" fill="#0588D3"/>
<g filter="url(#filter0_d_547_5739)">
<path d="M1303 628.5L1129.36 702.844L1254.73 847.731L1067.09 836.491L1119.3 1023.35L954.857 929.221L923.543 1121L815 962.146L706.457 1121L675.143 929.216L510.686 1023.35L562.908 836.486L375.266 847.726L500.638 702.844L327 628.5L500.638 554.156L375.266 409.269L562.908 420.514L510.691 233.646L675.143 327.779L706.457 136L815 294.854L923.543 136L954.857 327.784L1119.31 233.651L1067.09 420.514L1254.73 409.274L1129.36 554.156L1303 628.5Z" fill="#FFC400"/>
<path d="M1001.01 821.025C1103.75 714.689 1103.75 542.286 1001.01 435.951C898.264 329.616 731.684 329.616 628.94 435.951C526.196 542.286 526.196 714.689 628.94 821.024C731.684 927.36 898.264 927.36 1001.01 821.025Z" fill="#FFC400" stroke="white" stroke-width="6.0025" stroke-miterlimit="10"/>
</g>
<defs>
<filter id="filter0_d_547_5739" x="327" y="136" width="1021" height="1030" filterUnits="userSpaceOnUse" color-interpolation-filters="sRGB">
<feFlood flood-opacity="0" result="BackgroundImageFix"/>
<feColorMatrix in="SourceAlpha" type="matrix" values="0 0 0 0 0 0 0 0 0 0 0 0 0 0 0 0 0 0 127 0" result="hardAlpha"/>
<feOffset dx="35" dy="35"/>
<feGaussianBlur stdDeviation="5"/>
<feComposite in2="hardAlpha" operator="out"/>
<feColorMatrix type="matrix" values="0 0 0 0 0 0 0 0 0 0 0 0 0 0 0 0 0 0 0.5 0"/>
<feBlend mode="normal" in2="BackgroundImageFix" result="effect1_dropShadow_547_5739"/>
<feBlend mode="normal" in="SourceGraphic" in2="effect1_dropShadow_547_5739" result="shape"/>
</filter>
</defs>
</svg>
